<?xml version="1.0" standalone="no"?>
<!DOCTYPE svg PUBLIC "-//W3C//DTD SVG 20010904//EN"
 "http://www.w3.org/TR/2001/REC-SVG-20010904/DTD/svg10.dtd">
<svg version="1.0" xmlns="http://www.w3.org/2000/svg"
 width="207.000000pt" height="247.000000pt" viewBox="0 0 207.000000 247.000000"
 preserveAspectRatio="xMidYMid meet">

<g transform="translate(0.000000,247.000000) scale(0.100000,-0.100000)"
fill="#000000" stroke="none">
<path d="M900 2236 c0 -10 54 -158 144 -396 129 -338 251 -665 267 -715 20
-63 17 -172 -8 -226 -46 -103 -160 -183 -295 -208 -57 -11 -74 -10 -129 4 -99
27 -101 26 -128 -28 -30 -61 -22 -72 74 -92 89 -19 128 -19 223 1 196 39 353
165 397 319 13 45 16 82 13 159 -5 90 -11 115 -56 236 -62 167 -209 559 -292
783 l-63 167 -74 0 c-40 0 -73 -2 -73 -4z"/>
<path d="M928 1697 c-9 -23 -76 -197 -148 -387 -72 -190 -150 -392 -172 -450
-148 -381 -188 -487 -188 -502 0 -15 10 -18 69 -18 l70 0 21 58 c12 31 51 136
87 232 35 96 130 351 210 565 139 373 145 392 135 430 -17 64 -41 115 -55 115
-6 0 -20 -19 -29 -43z"/>
<path d="M1513 784 c-18 -31 -33 -62 -33 -69 0 -18 120 -346 133 -362 6 -8 35
-13 79 -13 67 0 69 1 63 23 -10 32 -166 439 -177 460 -15 29 -32 19 -65 -39z"/>
</g>
</svg>
